<svg width="24" height="24" viewBox="0 0 24 24" fill="none" xmlns="http://www.w3.org/2000/svg">
<g id="size=24">
<path id="Union" fill-rule="evenodd" clip-rule="evenodd" d="M14.0458 15.4596C12.7843 16.4234 11.208 16.9959 9.49792 16.9959C5.35693 16.9959 2 13.6389 2 9.49793C2 5.35694 5.35693 2 9.49792 2C13.6389 2 16.9958 5.35694 16.9958 9.49793C16.9958 11.208 16.4234 12.7843 15.4596 14.0458L22 20.5862L20.5862 22L14.0458 15.4596ZM14.9964 9.49793C14.9964 12.5347 12.5346 14.9964 9.49792 14.9964C6.4612 14.9964 3.99945 12.5347 3.99945 9.49793C3.99945 6.4612 6.4612 3.99945 9.49792 3.99945C12.5346 3.99945 14.9964 6.4612 14.9964 9.49793Z" fill="#14191A"/>
</g>
</svg>
