<svg width="22" height="18" viewBox="0 0 22 18" fill="none" xmlns="http://www.w3.org/2000/svg">
<path fill-rule="evenodd" clip-rule="evenodd" d="M2.48667 16.0833L3.90088 17.5L19.4572 1.91667L18.043 0.5L15.6285 2.91869C14.2073 2.31089 12.6431 1.97446 11 1.97446C6 1.97446 1.73 5.08985 0 9.48747C0.811754 11.5509 2.18274 13.3321 3.92596 14.6415L2.48667 16.0833ZM6.63386 11.9289L8.145 10.4152C8.05085 10.1231 8 9.81139 8 9.48747C8 7.82459 9.34 6.48226 11 6.48226C11.3234 6.48226 11.6346 6.5332 11.9261 6.62751L13.4372 5.11376C12.716 4.70937 11.8847 4.4788 11 4.4788C8.24 4.4788 6 6.72268 6 9.48747C6 10.3737 6.23017 11.2065 6.63386 11.9289Z" fill="#14191A"/>
<path d="M11 17.0005C9.8532 17.0005 8.7448 16.8366 7.69664 16.5309L9.85889 14.3649C10.2254 14.4508 10.6075 14.4961 11 14.4961C13.76 14.4961 16 12.2523 16 9.48747C16 9.09425 15.9547 8.71156 15.869 8.34437L19.0531 5.15476C20.3323 6.35065 21.3471 7.82774 22 9.48747C20.27 13.8851 16 17.0005 11 17.0005Z" fill="#14191A"/>
</svg>
